<svg xmlns="http://www.w3.org/2000/svg" viewBox="0 0 66.79 434.95"><defs><style>.cls-1{fill:#231f20;}</style></defs><g id="Layer_2" data-name="Layer 2"><g id="Layer_1-2" data-name="Layer 1"><path class="cls-1" d="M62.89,28.5h-4C58.89,15,47.45,4,33.39,4,19.64,4,8.2,14.75,7.89,28l-4-.1C4.25,12.5,17.48,0,33.39,0,49.66,0,62.89,12.79,62.89,28.5Z"/><path class="cls-1" d="M62.89,49.69h-4c0-13.51-11.44-24.5-25.5-24.5-13.75,0-25.19,10.75-25.5,24l-4-.09c.36-15.37,13.59-27.87,29.5-27.87C49.66,21.19,62.89,34,62.89,49.69Z"/><path class="cls-1" d="M62.89,70.88h-4c0-13.51-11.44-24.5-25.5-24.5-13.75,0-25.19,10.75-25.5,24l-4-.09c.36-15.37,13.59-27.87,29.5-27.87C49.66,42.38,62.89,55.17,62.89,70.88Z"/><path class="cls-1" d="M62.89,92.07h-4c0-13.5-11.44-24.5-25.5-24.5-13.75,0-25.19,10.75-25.5,24l-4-.09c.36-15.37,13.59-27.87,29.5-27.87C49.66,63.57,62.89,76.36,62.89,92.07Z"/><path class="cls-1" d="M62.89,113.27h-4c0-13.51-11.44-24.5-25.5-24.5-13.75,0-25.19,10.74-25.5,24l-4-.09c.36-15.36,13.59-27.86,29.5-27.86C49.66,84.77,62.89,97.55,62.89,113.27Z"/><path class="cls-1" d="M62.89,134.46h-4c0-13.51-11.44-24.5-25.5-24.5-13.75,0-25.19,10.74-25.5,24l-4-.09C4.25,118.46,17.48,106,33.39,106,49.66,106,62.89,118.74,62.89,134.46Z"/><path class="cls-1" d="M62.89,155.65h-4c0-13.51-11.44-24.5-25.5-24.5-13.75,0-25.19,10.75-25.5,24l-4-.1c.36-15.36,13.59-27.86,29.5-27.86C49.66,127.15,62.89,139.93,62.89,155.65Z"/><path class="cls-1" d="M62.89,176.84h-4c0-13.51-11.44-24.5-25.5-24.5-13.75,0-25.19,10.75-25.5,24l-4-.09c.36-15.37,13.59-27.87,29.5-27.87C49.66,148.34,62.89,161.13,62.89,176.84Z"/><path class="cls-1" d="M62.89,198h-4c0-13.51-11.44-24.5-25.5-24.5-13.75,0-25.19,10.75-25.5,24l-4-.09c.36-15.37,13.59-27.87,29.5-27.87C49.66,169.53,62.89,182.32,62.89,198Z"/><path class="cls-1" d="M62.89,219.22h-4c0-13.51-11.44-24.5-25.5-24.5-13.75,0-25.19,10.75-25.5,24l-4-.09c.36-15.37,13.59-27.87,29.5-27.87C49.66,190.72,62.89,203.51,62.89,219.22Z"/><path class="cls-1" d="M62.89,240.42h-4c0-13.51-11.44-24.5-25.5-24.5-13.75,0-25.19,10.74-25.5,24l-4-.09c.36-15.36,13.59-27.86,29.5-27.86C49.66,211.92,62.89,224.7,62.89,240.42Z"/><path class="cls-1" d="M62.89,261.61h-4c0-13.51-11.44-24.5-25.5-24.5-13.75,0-25.19,10.74-25.5,23.95l-4-.09c.36-15.36,13.59-27.86,29.5-27.86C49.66,233.11,62.89,245.89,62.89,261.61Z"/><path class="cls-1" d="M62.89,282.8h-4c0-13.51-11.44-24.5-25.5-24.5C19.64,258.3,8.2,269,7.89,282.25l-4-.09c.36-15.36,13.59-27.86,29.5-27.86C49.66,254.3,62.89,267.08,62.89,282.8Z"/><path class="cls-1" d="M62.89,304h-4c0-13.51-11.44-24.5-25.5-24.5-13.75,0-25.19,10.75-25.5,24l-4-.1c.36-15.36,13.59-27.86,29.5-27.86C49.66,275.49,62.89,288.27,62.89,304Z"/><path class="cls-1" d="M62.89,325.18h-4c0-13.51-11.44-24.5-25.5-24.5-13.75,0-25.19,10.75-25.5,24l-4-.09c.36-15.37,13.59-27.87,29.5-27.87C49.66,296.68,62.89,309.47,62.89,325.18Z"/><path class="cls-1" d="M62.89,346.37h-4c0-13.51-11.44-24.5-25.5-24.5-13.75,0-25.19,10.75-25.5,24l-4-.09c.36-15.37,13.59-27.87,29.5-27.87C49.66,317.87,62.89,330.66,62.89,346.37Z"/><path class="cls-1" d="M62.89,367.56h-4c0-13.51-11.44-24.5-25.5-24.5-13.75,0-25.19,10.75-25.5,24l-4-.09c.36-15.37,13.59-27.87,29.5-27.87C49.66,339.06,62.89,351.85,62.89,367.56Z"/><path class="cls-1" d="M62.89,388.75h-4c0-13.5-11.44-24.5-25.5-24.5-13.75,0-25.19,10.75-25.5,24l-4-.09c.36-15.37,13.59-27.87,29.5-27.87C49.66,360.25,62.89,373,62.89,388.75Z"/><path class="cls-1" d="M62.89,410h-4c0-13.51-11.44-24.5-25.5-24.5-13.75,0-25.19,10.74-25.5,23.95l-4-.09c.36-15.36,13.59-27.86,29.5-27.86C49.66,381.45,62.89,394.23,62.89,410Z"/><path class="cls-1" d="M62.89,431.14h-4c0-13.51-11.44-24.5-25.5-24.5-13.75,0-25.19,10.75-25.5,23.95l-4-.09c.36-15.36,13.59-27.86,29.5-27.86C49.66,402.64,62.89,415.42,62.89,431.14Z"/><path class="cls-1" d="M5.89,31.1C2.2,31.1,0,29.9,0,27.9s2.2-3.21,5.89-3.21,5.9,1.2,5.9,3.21S9.58,31.1,5.89,31.1Z"/><path class="cls-1" d="M60.89,32.31c-3.69,0-5.89-1.2-5.89-3.21s2.2-3.2,5.89-3.2,5.9,1.2,5.9,3.2S64.58,32.31,60.89,32.31Z"/><ellipse class="cls-1" cx="5.89" cy="49.09" rx="5.89" ry="3.21"/><path class="cls-1" d="M60.89,53.5C57.2,53.5,55,52.3,55,50.3s2.2-3.21,5.89-3.21,5.9,1.2,5.9,3.21S64.58,53.5,60.89,53.5Z"/><ellipse class="cls-1" cx="5.89" cy="70.28" rx="5.89" ry="3.21"/><ellipse class="cls-1" cx="60.89" cy="71.49" rx="5.89" ry="3.21"/><ellipse class="cls-1" cx="5.89" cy="91.47" rx="5.89" ry="3.21"/><ellipse class="cls-1" cx="60.89" cy="92.68" rx="5.89" ry="3.21"/><ellipse class="cls-1" cx="5.89" cy="112.66" rx="5.89" ry="3.21"/><ellipse class="cls-1" cx="60.89" cy="113.87" rx="5.89" ry="3.21"/><path class="cls-1" d="M5.89,137.06c-3.69,0-5.89-1.2-5.89-3.21s2.2-3.2,5.89-3.2,5.9,1.2,5.9,3.2S9.58,137.06,5.89,137.06Z"/><ellipse class="cls-1" cx="60.89" cy="135.06" rx="5.89" ry="3.21"/><path class="cls-1" d="M5.89,158.25c-3.69,0-5.89-1.2-5.89-3.2s2.2-3.21,5.89-3.21,5.9,1.2,5.9,3.21S9.58,158.25,5.89,158.25Z"/><path class="cls-1" d="M60.89,159.46c-3.69,0-5.89-1.2-5.89-3.21s2.2-3.2,5.89-3.2,5.9,1.19,5.9,3.2S64.58,159.46,60.89,159.46Z"/><ellipse class="cls-1" cx="5.89" cy="176.24" rx="5.89" ry="3.21"/><path class="cls-1" d="M60.89,180.65c-3.69,0-5.89-1.2-5.89-3.21s2.2-3.2,5.89-3.2,5.9,1.2,5.9,3.2S64.58,180.65,60.89,180.65Z"/><ellipse class="cls-1" cx="5.89" cy="197.43" rx="5.89" ry="3.21"/><ellipse class="cls-1" cx="60.89" cy="198.64" rx="5.89" ry="3.21"/><ellipse class="cls-1" cx="5.89" cy="218.62" rx="5.89" ry="3.21"/><ellipse class="cls-1" cx="60.89" cy="219.83" rx="5.89" ry="3.21"/><ellipse class="cls-1" cx="5.89" cy="239.81" rx="5.89" ry="3.21"/><ellipse class="cls-1" cx="60.89" cy="241.02" rx="5.89" ry="3.21"/><path class="cls-1" d="M5.89,264.21C2.2,264.21,0,263,0,261s2.2-3.2,5.89-3.2,5.9,1.19,5.9,3.2S9.58,264.21,5.89,264.21Z"/><ellipse class="cls-1" cx="60.89" cy="262.21" rx="5.89" ry="3.21"/><path class="cls-1" d="M5.89,285.4C2.2,285.4,0,284.2,0,282.19S2.2,279,5.89,279s5.9,1.2,5.9,3.2S9.58,285.4,5.89,285.4Z"/><path class="cls-1" d="M60.89,286.61c-3.69,0-5.89-1.2-5.89-3.21s2.2-3.21,5.89-3.21,5.9,1.2,5.9,3.21S64.58,286.61,60.89,286.61Z"/><ellipse class="cls-1" cx="5.89" cy="303.39" rx="5.89" ry="3.21"/><path class="cls-1" d="M60.89,307.8c-3.69,0-5.89-1.2-5.89-3.21s2.2-3.2,5.89-3.2,5.9,1.19,5.9,3.2S64.58,307.8,60.89,307.8Z"/><ellipse class="cls-1" cx="5.89" cy="324.58" rx="5.89" ry="3.21"/><ellipse class="cls-1" cx="60.89" cy="325.78" rx="5.89" ry="3.21"/><path class="cls-1" d="M5.89,349C2.2,349,0,347.78,0,345.77s2.2-3.21,5.89-3.21,5.9,1.2,5.9,3.21S9.58,349,5.89,349Z"/><ellipse class="cls-1" cx="60.89" cy="346.98" rx="5.89" ry="3.21"/><path class="cls-1" d="M5.89,370.17C2.2,370.17,0,369,0,367s2.2-3.21,5.89-3.21,5.9,1.2,5.9,3.21S9.58,370.17,5.89,370.17Z"/><path class="cls-1" d="M60.89,371.38c-3.69,0-5.89-1.2-5.89-3.21S57.2,365,60.89,365s5.9,1.2,5.9,3.21S64.58,371.38,60.89,371.38Z"/><path class="cls-1" d="M5.89,391.36c-3.69,0-5.89-1.2-5.89-3.21s2.2-3.21,5.89-3.21,5.9,1.2,5.9,3.21S9.58,391.36,5.89,391.36Z"/><path class="cls-1" d="M60.89,392.57c-3.69,0-5.89-1.2-5.89-3.21s2.2-3.21,5.89-3.21,5.9,1.2,5.9,3.21S64.58,392.57,60.89,392.57Z"/><path class="cls-1" d="M5.89,412.55c-3.69,0-5.89-1.2-5.89-3.21s2.2-3.2,5.89-3.2,5.9,1.19,5.9,3.2S9.58,412.55,5.89,412.55Z"/><path class="cls-1" d="M60.89,413.76c-3.69,0-5.89-1.2-5.89-3.21s2.2-3.21,5.89-3.21,5.9,1.2,5.9,3.21S64.58,413.76,60.89,413.76Z"/><path class="cls-1" d="M5.89,433.74c-3.69,0-5.89-1.2-5.89-3.21s2.2-3.2,5.89-3.2,5.9,1.2,5.9,3.2S9.58,433.74,5.89,433.74Z"/><path class="cls-1" d="M60.89,435c-3.69,0-5.89-1.2-5.89-3.21s2.2-3.21,5.89-3.21,5.9,1.2,5.9,3.21S64.58,435,60.89,435Z"/></g></g></svg>